# xmcd
#
# Track frame offsets:
# 150
# 19513
# 37559
# 56548
# 70169
# 93909
# 113981
# 132185
# 150267
# 168859
# 188215
# 206033
# 226942
# 245041
# 264853
# 284311
# 302584
# 323643
# 343392
#
# Disc length: 4779 seconds
#
#
# Revision: 7
# Processed by: cddbd v1.5.2PL0 Copyright (c) Steve Scherf et al.
# Submitted via: FreeRIP 2.942 
#
DISCID=f712a913
DTITLE=Kenny G - Ultimate Kenny G
DYEAR=2003
DGENRE=Jazz
TTITLE0=Everlasting
TTITLE1=Havana
TTITLE2=Brazil
TTITLE3=What A Wonderful World (With Louis Armstrong)
TTITLE4=The Look Of Love (Theme From Casino Royale)
TTITLE5=Silhouette
TTITLE6=One More Time (With Chanté Moore)
TTITLE7=Theme From Dying Young
TTITLE8=Forever In Love
TTITLE9=We've Saved The Best For Last
TTITLE10=Songbird
TTITLE11=Jasmine Flower
TTITLE12=The Girl From Ipanema (With Bebel Gilberto)
TTITLE13=By The Time This Night Is Over (With Peabo Bryson)
TTITLE14=The Champion's Theme
TTITLE15=Don't Make Me Wait For Love
TTITLE16=The Moment
TTITLE17=My Heart Will Go On (Love Theme From Titanic)
TTITLE18=The Wedding Song
EXTD=
EXTT0=
EXTT1=
EXTT2=
EXTT3=
EXTT4=
EXTT5=
EXTT6=
EXTT7=
EXTT8=
EXTT9=
EXTT10=
EXTT11=
EXTT12=
EXTT13=
EXTT14=
EXTT15=
EXTT16=
EXTT17=
EXTT18=
PLAYORDER=
